<svg width="190" height="190" viewBox="0 0 190 190" fill="none" xmlns="http://www.w3.org/2000/svg">
<path d="M44.698 85.147C52.5962 43.9394 63.121 36.8003 104.329 44.6985C145.536 52.5968 152.675 63.1216 144.777 104.329C136.879 145.537 126.354 152.676 85.1464 144.778C43.9388 136.879 36.7997 126.354 44.698 85.147Z" fill="#FF7449"/>
<path d="M110.248 84.9129L119.032 86.5089L112.861 120.473L101.149 118.345L106.899 86.6972" stroke="white" stroke-width="1.3" stroke-linecap="round" stroke-linejoin="round"/>
<path d="M113.424 76.3677C113.83 78.3086 113.55 80.3302 112.633 82.0881C111.716 83.8461 110.217 85.2315 108.393 86.0085C106.569 86.7854 104.531 86.9058 102.628 86.3491C100.725 85.7923 99.0739 84.5929 97.956 82.9552C96.838 81.3176 96.3225 79.3429 96.4973 77.3677C96.672 75.3926 97.5263 73.5391 98.9144 72.1232C100.303 70.7072 102.139 69.8164 104.11 69.6024C106.081 69.3885 108.066 69.8647 109.725 70.9499" stroke="white" stroke-width="1.3" stroke-linecap="round" stroke-linejoin="round"/>
<path d="M67.1855 112.174L117.546 121.324" stroke="white" stroke-width="1.3" stroke-linecap="round" stroke-linejoin="round"/>
<rect x="73.6777" y="96.4155" width="11.9034" height="16.6648" transform="rotate(10.2985 73.6777 96.4155)" stroke="white" stroke-width="1.3" stroke-linecap="round" stroke-linejoin="round"/>
<path d="M89.3333 96.8137L85.9237 115.578L97.6353 117.706L102.104 93.1119L95.0772 91.8351" stroke="white" stroke-width="1.3" stroke-linecap="round" stroke-linejoin="round"/>
<path d="M95.0462 88.238C95.3666 89.7694 95.1461 91.3646 94.4223 92.7517C93.6985 94.1389 92.5161 95.2321 91.0766 95.8451C89.6371 96.4582 88.0296 96.5532 86.5279 96.1139C85.0262 95.6746 83.7233 94.7282 82.8412 93.4359C81.9591 92.1437 81.5523 90.5856 81.6902 89.0271C81.8281 87.4685 82.5022 86.006 83.5975 84.8888C84.6928 83.7715 86.1416 83.0686 87.6971 82.8998C89.2526 82.731 90.8185 83.1067 92.1279 83.963" stroke="white" stroke-width="1.3" stroke-linecap="round" stroke-linejoin="round"/>
<path d="M105.863 80.5231C105.925 80.1828 105.868 79.8829 105.691 79.6235C105.516 79.3601 105.192 79.0944 104.72 78.8267C104.248 78.5549 103.886 78.3175 103.633 78.1144C102.792 77.4446 102.46 76.6193 102.638 75.6386C102.759 74.9741 103.06 74.4644 103.542 74.1095C104.025 73.7547 104.619 73.6001 105.326 73.6459L105.564 72.3369L106.525 72.5115L106.285 73.8325C106.963 74.0591 107.448 74.4532 107.738 75.0146C108.03 75.5721 108.105 76.2431 107.962 77.0277L106.509 76.7637C106.601 76.2593 106.558 75.8423 106.383 75.5126C106.212 75.1796 105.932 74.9779 105.544 74.9073C105.159 74.8375 104.84 74.887 104.586 75.0559C104.332 75.2248 104.17 75.5034 104.099 75.8917C104.036 76.2399 104.091 76.5394 104.265 76.7901C104.443 77.0376 104.771 77.3019 105.25 77.5832C105.728 77.8644 106.099 78.1116 106.362 78.3248C106.625 78.5381 106.838 78.7669 107 79.0115C107.163 79.252 107.274 79.5162 107.333 79.804C107.393 80.0918 107.39 80.4159 107.324 80.7762C107.201 81.4527 106.894 81.9633 106.401 82.3079C105.912 82.6533 105.291 82.7968 104.536 82.7383L104.324 83.9092L103.369 83.7357L103.58 82.5708C102.804 82.3387 102.245 81.9436 101.904 81.3854C101.567 80.8279 101.47 80.1529 101.614 79.3603L103.074 79.6254C102.982 80.1298 103.037 80.543 103.239 80.865C103.445 81.1878 103.78 81.3914 104.245 81.4757C104.701 81.5587 105.067 81.5115 105.343 81.3342C105.624 81.1577 105.797 80.8873 105.863 80.5231Z" fill="white"/>
</svg>
