<svg width="167" height="168" viewBox="0 0 167 168" fill="none" xmlns="http://www.w3.org/2000/svg">
<g filter="url(#filter0_d_2_10919)">
<path d="M45.4154 81.877C34.3678 50.5462 38.7151 41.4632 70.0459 30.4156C101.377 19.368 110.46 23.7153 121.507 55.0461C132.555 86.3769 128.208 95.4598 96.8768 106.507C65.546 117.555 56.463 113.208 45.4154 81.877Z" fill="white"/>
</g>
<path d="M68.6325 78.2664C68.166 79.0212 68.0663 80.2267 69.1551 80.9311C70.932 82.0805 72.3508 80.3313 73.103 78.9959" stroke="#3D50F9" stroke-width="1.3"/>
<path d="M90.2802 66.7791L100.791 69.3024C101.955 69.5818 103.133 68.8975 103.467 67.7482C103.811 66.5654 103.136 65.3268 101.956 64.9744L84.3295 59.7107L78.3838 65.6698C77.8342 66.2206 77.0033 66.3784 76.29 66.0675C75.2573 65.6173 74.8451 64.3695 75.4062 63.3927L78.9703 57.1885C79.8211 55.7075 81.3185 54.7125 83.0135 54.5019L93.6822 53.1763L98.6673 49.3798M102.242 65.0599L106.032 62.7522M78.1309 58.4914L76.5982 58.5635C75.0586 58.6359 73.6035 59.2885 72.5255 60.3901L71.2345 61.7093C70.6093 62.3481 69.7355 62.6805 68.8438 62.6187L65.4998 62.3868M62.9235 77.3778L75.7886 79.5024" stroke="#3D50F9" stroke-width="1.3"/>
<path d="M98.0872 68.6525L99.8867 69.0811C100.942 69.3325 101.585 70.4028 101.311 71.4528C101.061 72.4066 100.135 73.0205 99.1594 72.8783L89.1357 71.4175" stroke="#3D50F9" stroke-width="1.3"/>
<path d="M95.9681 72.4107L97.7987 72.6704C98.8737 72.8229 99.6132 73.8295 99.4372 74.901C99.2775 75.8734 98.4128 76.5708 97.4286 76.5208L89.1496 76.1004" stroke="#3D50F9" stroke-width="1.3"/>
<path d="M93.2847 76.2969L95.1279 76.4535C96.2092 76.5454 97.0036 77.5084 96.8881 78.5875C96.7833 79.5677 95.9583 80.3124 94.9725 80.3167L88.1881 80.351" stroke="#3D50F9" stroke-width="1.3"/>
<path d="M75.7477 77.2066C75.6885 76.0813 76.5527 75.1211 77.6779 75.0619C78.8032 75.0027 79.7634 75.8669 79.8226 76.9922L80.0078 80.5126C80.0671 81.6379 79.2029 82.5981 78.0776 82.6573C76.9524 82.7165 75.9922 81.8523 75.933 80.7271L75.7477 77.2066Z" stroke="#3D50F9" stroke-width="1.3"/>
<path d="M79.8219 77.0127C79.7627 75.8875 80.6269 74.9273 81.7522 74.8681C82.8774 74.8089 83.8376 75.6731 83.8968 76.7983L84.0821 80.3188C84.1413 81.444 83.2771 82.4042 82.1518 82.4634C81.0266 82.5226 80.0664 81.6584 80.0072 80.5332L79.8219 77.0127Z" stroke="#3D50F9" stroke-width="1.3"/>
<path d="M83.9069 76.7295C83.8477 75.6043 84.7119 74.6441 85.8371 74.5849C86.9624 74.5257 87.9226 75.3899 87.9818 76.5151L88.167 80.0356C88.2262 81.1608 87.3621 82.121 86.2368 82.1802C85.1116 82.2394 84.1514 81.3752 84.0922 80.25L83.9069 76.7295Z" stroke="#3D50F9" stroke-width="1.3"/>
<defs>
<filter id="filter0_d_2_10919" x="0.202564" y="0.743756" width="166.518" height="166.518" filterUnits="userSpaceOnUse" color-interpolation-filters="sRGB">
<feFlood flood-opacity="0" result="BackgroundImageFix"/>
<feColorMatrix in="SourceAlpha" type="matrix" values="0 0 0 0 0 0 0 0 0 0 0 0 0 0 0 0 0 0 127 0" result="hardAlpha"/>
<feOffset dy="15.5412"/>
<feGaussianBlur stdDeviation="19.8582"/>
<feColorMatrix type="matrix" values="0 0 0 0 0.0846931 0 0 0 0 0.0968633 0 0 0 0 0.12526 0 0 0 0.1 0"/>
<feBlend mode="normal" in2="BackgroundImageFix" result="effect1_dropShadow_2_10919"/>
<feBlend mode="normal" in="SourceGraphic" in2="effect1_dropShadow_2_10919" result="shape"/>
</filter>
</defs>
</svg>
